<svg xmlns="http://www.w3.org/2000/svg" viewBox="0 0 800 450" width="800" height="450"><defs><linearGradient id="cat-special-paint" gradientUnits="userSpaceOnUse" x1="0" y1="168" x2="0" y2="318"><stop offset="0" stop-color="#6A7079"/><stop offset="0.3" stop-color="#4A4F55"/><stop offset="0.5" stop-color="#4A4F55"/><stop offset="0.6" stop-color="#2A2D31"/><stop offset="1" stop-color="#15171A"/></linearGradient><linearGradient id="cat-special-sheen" gradientUnits="userSpaceOnUse" x1="60" y1="0" x2="760" y2="0"><stop offset="0" stop-color="#FFFFFF" stop-opacity="0"/><stop offset="0.3" stop-color="#FFFFFF" stop-opacity="0.1"/><stop offset="0.5" stop-color="#FFFFFF" stop-opacity="0"/><stop offset="0.8" stop-color="#FFFFFF" stop-opacity="0"/><stop offset="1" stop-color="#FFFFFF" stop-opacity="0"/></linearGradient><linearGradient id="cat-special-glass" gradientUnits="userSpaceOnUse" x1="0" y1="174" x2="0" y2="244"><stop offset="0" stop-color="#23272D"/><stop offset="1" stop-color="#08090A"/></linearGradient><linearGradient id="cat-special-rim" gradientUnits="userSpaceOnUse" x1="-36" y1="-36" x2="36" y2="36"><stop offset="0" stop-color="#6A7079"/><stop offset="1" stop-color="#2A2D31"/></linearGradient><radialGradient id="cat-special-shadow" gradientUnits="userSpaceOnUse" cx="400" cy="365" r="340" gradientTransform="translate(400 365) scale(1 0.05) translate(-400 -365)"><stop offset="0" stop-color="#000000" stop-opacity="0.6"/><stop offset="0.7" stop-color="#000000" stop-opacity="0.2"/><stop offset="1" stop-color="#000000" stop-opacity="0"/></radialGradient><radialGradient id="cat-special-glow" gradientUnits="userSpaceOnUse" cx="726" cy="272" r="80" gradientTransform="translate(726 272) scale(1 0.4) translate(-726 -272)"><stop offset="0" stop-color="#FFF8DC" stop-opacity="0.9"/><stop offset="0.4" stop-color="#FFE7A6" stop-opacity="0.4"/><stop offset="1" stop-color="#FFE7A6" stop-opacity="0"/></radialGradient><linearGradient id="cat-special-chrome" gradientUnits="userSpaceOnUse" x1="0" y1="120" x2="0" y2="310"><stop offset="0" stop-color="#FFFFFF"/><stop offset="0.5" stop-color="#B8BEC6"/><stop offset="0.6" stop-color="#6B7178"/><stop offset="1" stop-color="#E4E8EC"/></linearGradient><linearGradient id="cat-special-beam" gradientUnits="userSpaceOnUse" x1="718" y1="0" x2="800" y2="0"><stop offset="0" stop-color="#FFE9B3" stop-opacity="0.8"/><stop offset="1" stop-color="#FFE9B3" stop-opacity="0"/></linearGradient><clipPath id="cat-special-clip"><path d="M70 316L64 262Q64 240 86 236L150 232C168 204 188 176 222 170L328 170C346 172 356 184 362 202L372 226L700 256Q722 260 724 276L724 304Q724 316 710 316L669.6 316A48 48 0 0 0 574.4 316L268.1 316A70 70 0 1 0 131.9 316Z"/></clipPath><path id="cat-special-shell" d="M70 316L64 262Q64 240 86 236L150 232C168 204 188 176 222 170L328 170C346 172 356 184 362 202L372 226L700 256Q722 260 724 276L724 304Q724 316 710 316L669.6 316A48 48 0 0 0 574.4 316L268.1 316A70 70 0 1 0 131.9 316Z"/><g id="cat-special-w"><circle r="50" fill="#0C0D0E"/><circle r="45.5" fill="none" stroke="#222428" stroke-width="3"/><circle r="36" fill="#101113"/><path d="M0 0L0 -31M0 0L29.5 -9.6M0 0L18.2 25.1M0 0L-18.2 25.1M0 0L-29.5 -9.6" stroke="url(#cat-special-rim)" stroke-width="8" stroke-linecap="round"/><circle r="35" fill="none" stroke="url(#cat-special-rim)" stroke-width="4"/><circle r="10" fill="url(#cat-special-rim)"/><circle r="4" fill="#1A1C1F"/></g></defs><ellipse cx="400" cy="365" rx="340" ry="17" fill="url(#cat-special-shadow)"/><ellipse cx="200" cy="363" rx="65.1" ry="5" fill="#000000" opacity="0.5"/><ellipse cx="622" cy="363" rx="42" ry="5" fill="#000000" opacity="0.5"/><path d="M268.1 316A70 70 0 1 0 131.9 316Z" fill="#0B0C0D"/><path d="M669.6 316A48 48 0 0 0 574.4 316Z" fill="#0B0C0D"/><use href="#cat-special-w" transform="translate(200 300) scale(1.24)"/><use href="#cat-special-w" transform="translate(622 322) scale(0.8)"/><use href="#cat-special-shell" fill="url(#cat-special-paint)"/><use href="#cat-special-shell" fill="url(#cat-special-sheen)"/><g clip-path="url(#cat-special-clip)"><path d="M90 262C300 250 500 262 700 272" fill="none" stroke="#FFFFFF" stroke-opacity="0.2" stroke-width="2.5"/></g><path d="M236 184L322 184Q336 186 342 198L348 212L232 212Q228 196 236 184Z" fill="url(#cat-special-glass)" stroke="#0B0B0B" stroke-opacity="0.6" stroke-width="1.5"/><path d="M302 185L318 185L306 211L292 211Z" fill="#FFFFFF" opacity="0.1"/><path d="M290 184L290 212" stroke="#0E1013" stroke-width="7"/><path d="M690 300L726 298L728 316L692 318ZM64 300L120 302L120 316L66 316Z" fill="#16181B"/><path d="M300 218L298 300M312 232H336" fill="none" stroke="#0B0B0B" stroke-opacity="0.6" stroke-width="2" stroke-linecap="round"/><path d="M65 250L78 248L78 262L65 264Z" fill="#7A0F0B" class="taillight" stroke="#0B0B0B" stroke-opacity="0.5"/><path d="M430 240C420 268 404 288 370 300M462 244C454 272 438 292 404 304M494 246C488 276 470 296 438 306M292 306L560 306" fill="none" stroke="url(#cat-special-chrome)" stroke-width="8" stroke-linecap="round"/><path d="M404 229V206Q404 198 412 198H532Q540 198 540 206V242Z" fill="url(#cat-special-chrome)" stroke="#16181B" stroke-width="2"/><path d="M424 198V164Q424 156 432 156H512Q520 156 520 164V198Z" fill="url(#cat-special-chrome)" stroke="#16181B" stroke-width="2"/><path d="M440 160V196M456 160V196M472 160V196M488 160V196M504 160V196" stroke="#5A6068" stroke-width="1.5"/><path d="M434 156L441 124H503L510 156Z" fill="#16181B" stroke="#5A6068" stroke-width="1.5"/><path d="M441 124H503" stroke="url(#cat-special-chrome)" stroke-width="3"/><path d="M70 316L64 262Q64 240 86 236L150 232C168 204 188 176 222 170L328 170C346 172 356 184 362 202L372 226L700 256Q722 260 724 276L724 304Q724 316 710 316" fill="none" stroke="#FFFFFF" stroke-opacity="0.4" stroke-width="2" stroke-linejoin="round"/><use href="#cat-special-shell" fill="none" stroke="#0B0B0B" stroke-opacity="0.6" stroke-width="1.6"/><g class="headlight" opacity="0.4"><path d="M702 262L724 266L724 278L702 276Z" fill="#FFF6DA" stroke="#0B0B0B" stroke-opacity="0.6" stroke-width="1.5"/><path d="M718 266L800 224V318L718 280Z" fill="url(#cat-special-beam)"/><ellipse cx="726" cy="272" rx="80" ry="32" fill="url(#cat-special-glow)"/></g></svg>
