<svg xmlns="http://www.w3.org/2000/svg" viewBox="0 0 800 450" width="800" height="450"><defs><linearGradient id="hatch-race-paint" gradientUnits="userSpaceOnUse" x1="0" y1="172" x2="0" y2="332"><stop offset="0" stop-color="#FFFFFF"/><stop offset="0.3" stop-color="#EDECE8"/><stop offset="0.5" stop-color="#EDECE8"/><stop offset="0.6" stop-color="#B3B6BA"/><stop offset="1" stop-color="#6D7075"/></linearGradient><linearGradient id="hatch-race-sheen" gradientUnits="userSpaceOnUse" x1="60" y1="0" x2="760" y2="0"><stop offset="0" stop-color="#FFFFFF" stop-opacity="0"/><stop offset="0.3" stop-color="#FFFFFF" stop-opacity="0.2"/><stop offset="0.5" stop-color="#FFFFFF" stop-opacity="0"/><stop offset="0.8" stop-color="#FFFFFF" stop-opacity="0.1"/><stop offset="1" stop-color="#FFFFFF" stop-opacity="0"/></linearGradient><linearGradient id="hatch-race-glass" gradientUnits="userSpaceOnUse" x1="0" y1="178" x2="0" y2="248"><stop offset="0" stop-color="#3B4C5D"/><stop offset="1" stop-color="#0A0E12"/></linearGradient><linearGradient id="hatch-race-rim" gradientUnits="userSpaceOnUse" x1="-36" y1="-36" x2="36" y2="36"><stop offset="0" stop-color="#F6F8FA"/><stop offset="0.5" stop-color="#A9B0B8"/><stop offset="1" stop-color="#5C636B"/></linearGradient><radialGradient id="hatch-race-shadow" gradientUnits="userSpaceOnUse" cx="400" cy="365" r="340" gradientTransform="translate(400 365) scale(1 0.05) translate(-400 -365)"><stop offset="0" stop-color="#000000" stop-opacity="0.6"/><stop offset="0.7" stop-color="#000000" stop-opacity="0.2"/><stop offset="1" stop-color="#000000" stop-opacity="0"/></radialGradient><radialGradient id="hatch-race-glow" gradientUnits="userSpaceOnUse" cx="702" cy="270" r="80" gradientTransform="translate(702 270) scale(1 0.4) translate(-702 -270)"><stop offset="0" stop-color="#FFF8DC" stop-opacity="0.9"/><stop offset="0.4" stop-color="#FFE7A6" stop-opacity="0.4"/><stop offset="1" stop-color="#FFE7A6" stop-opacity="0"/></radialGradient><clipPath id="hatch-race-clip"><path d="M100 330L96 262Q96 226 118 210C150 186 190 176 236 174L420 172C446 172 466 180 482 194L548 238C610 244 664 250 690 262Q706 270 704 292L702 322Q700 330 688 330L621.7 330A58 58 0 1 0 510.3 330L251.7 330A58 58 0 1 0 140.3 330Z"/></clipPath><path id="hatch-race-shell" d="M100 330L96 262Q96 226 118 210C150 186 190 176 236 174L420 172C446 172 466 180 482 194L548 238C610 244 664 250 690 262Q706 270 704 292L702 322Q700 330 688 330L621.7 330A58 58 0 1 0 510.3 330L251.7 330A58 58 0 1 0 140.3 330Z"/><g id="hatch-race-w"><circle r="50" fill="#131313"/><circle r="45.5" fill="none" stroke="#2E2E2E" stroke-width="3"/><circle r="36" fill="#191B1E"/><path d="M13 -29A32 32 0 0 1 29 -13L21 -9A23 23 0 0 0 9 -21Z" fill="#FF5A00"/><path d="M0 0L0 -31M0 0L29.5 -9.6M0 0L18.2 25.1M0 0L-18.2 25.1M0 0L-29.5 -9.6" stroke="url(#hatch-race-rim)" stroke-width="8" stroke-linecap="round"/><circle r="35" fill="none" stroke="url(#hatch-race-rim)" stroke-width="4"/><circle r="10" fill="url(#hatch-race-rim)"/><circle r="4" fill="#2A2D31"/></g></defs><ellipse cx="400" cy="365" rx="340" ry="17" fill="url(#hatch-race-shadow)"/><ellipse cx="196" cy="363" rx="50.4" ry="5" fill="#000000" opacity="0.5"/><ellipse cx="566" cy="363" rx="50.4" ry="5" fill="#000000" opacity="0.5"/><path d="M251.7 330A58 58 0 1 0 140.3 330Z" fill="#0B0C0D"/><path d="M621.7 330A58 58 0 1 0 510.3 330Z" fill="#0B0C0D"/><use href="#hatch-race-w" transform="translate(196 314) scale(0.96)"/><use href="#hatch-race-w" transform="translate(566 314) scale(0.96)"/><use href="#hatch-race-shell" fill="url(#hatch-race-paint)"/><use href="#hatch-race-shell" fill="url(#hatch-race-sheen)"/><path d="M520 222Q532 212 550 216L548 226Q532 230 522 228Z" fill="url(#hatch-race-paint)" stroke="#0B0B0B" stroke-opacity="0.5" stroke-width="1.5"/><g clip-path="url(#hatch-race-clip)"><rect x="0" y="285" width="800" height="9" fill="#E10600"/><rect x="0" y="297" width="800" height="4" fill="#0B0B0B"/><path d="M476 120L518 120L418 380L376 380Z" fill="#E10600"/><path d="M104 272C260 264 480 258 696 274" fill="none" stroke="#FFFFFF" stroke-opacity="0.4" stroke-width="2.5"/></g><path d="M132 214C162 194 200 186 240 186L416 184C438 184 454 190 466 200L518 236L126 238Q120 226 132 214Z" fill="url(#hatch-race-glass)" stroke="#0B0B0B" stroke-opacity="0.6" stroke-width="1.5"/><path d="M430 188L452 192L424 236L402 236Z" fill="#FFFFFF" opacity="0.2"/><path d="M250 186L250 238M392 185L392 238" stroke="#0E1013" stroke-width="7"/><path d="M108 214L146 190L158 196L118 220ZM254 316L510 316L508 330L256 330ZM660 326L704 320L708 330L662 334ZM98 318L140 320L140 330L100 330Z" fill="#16181B"/><path d="M398 242L396 316M258 242L256 312M410 258H432" fill="none" stroke="#0B0B0B" stroke-opacity="0.6" stroke-width="2" stroke-linecap="round"/><path d="M97 244L109 236L111 256L98 262Z" fill="#E5261F" stroke="#0B0B0B" stroke-opacity="0.5"/><g><circle cx="326" cy="282" r="23" fill="#FFFFFF" stroke="#0B0B0B" stroke-width="3"/><path d="M316.1 276.9L320 273.5L320 290.5M324.6 273.5L335.9 273.5L328.8 290.5" fill="none" stroke="#0B0B0B" stroke-width="3" stroke-linecap="round" stroke-linejoin="round"/></g><path d="M100 330L96 262Q96 226 118 210C150 186 190 176 236 174L420 172C446 172 466 180 482 194L548 238C610 244 664 250 690 262Q706 270 704 292L702 322Q700 330 688 330" fill="none" stroke="#FFFFFF" stroke-opacity="0.6" stroke-width="2" stroke-linejoin="round"/><use href="#hatch-race-shell" fill="none" stroke="#0B0B0B" stroke-opacity="0.6" stroke-width="1.6"/><path d="M672 258L700 266L698 276L670 268Z" fill="#FFF6DA" stroke="#0B0B0B" stroke-opacity="0.6" stroke-width="1.5"/><ellipse cx="702" cy="270" rx="80" ry="32" fill="url(#hatch-race-glow)"/></svg>
