<svg xmlns="http://www.w3.org/2000/svg" viewBox="0 0 800 450" width="800" height="450"><defs><linearGradient id="prototype-blue-paint" gradientUnits="userSpaceOnUse" x1="0" y1="196" x2="0" y2="334"><stop offset="0" stop-color="#94BCFF"/><stop offset="0.3" stop-color="#1F5BD8"/><stop offset="0.5" stop-color="#1F5BD8"/><stop offset="0.6" stop-color="#0F3380"/><stop offset="1" stop-color="#06163A"/></linearGradient><linearGradient id="prototype-blue-sheen" gradientUnits="userSpaceOnUse" x1="60" y1="0" x2="760" y2="0"><stop offset="0" stop-color="#FFFFFF" stop-opacity="0"/><stop offset="0.3" stop-color="#FFFFFF" stop-opacity="0.2"/><stop offset="0.5" stop-color="#FFFFFF" stop-opacity="0"/><stop offset="0.8" stop-color="#FFFFFF" stop-opacity="0.1"/><stop offset="1" stop-color="#FFFFFF" stop-opacity="0"/></linearGradient><linearGradient id="prototype-blue-glass" gradientUnits="userSpaceOnUse" x1="0" y1="202" x2="0" y2="272"><stop offset="0" stop-color="#3B4C5D"/><stop offset="1" stop-color="#0A0E12"/></linearGradient><linearGradient id="prototype-blue-rim" gradientUnits="userSpaceOnUse" x1="-36" y1="-36" x2="36" y2="36"><stop offset="0" stop-color="#F6F8FA"/><stop offset="0.5" stop-color="#A9B0B8"/><stop offset="1" stop-color="#5C636B"/></linearGradient><radialGradient id="prototype-blue-shadow" gradientUnits="userSpaceOnUse" cx="400" cy="365" r="340" gradientTransform="translate(400 365) scale(1 0.05) translate(-400 -365)"><stop offset="0" stop-color="#000000" stop-opacity="0.6"/><stop offset="0.7" stop-color="#000000" stop-opacity="0.2"/><stop offset="1" stop-color="#000000" stop-opacity="0"/></radialGradient><radialGradient id="prototype-blue-glow" gradientUnits="userSpaceOnUse" cx="736" cy="294" r="80" gradientTransform="translate(736 294) scale(1 0.4) translate(-736 -294)"><stop offset="0" stop-color="#FFF8DC" stop-opacity="0.9"/><stop offset="0.4" stop-color="#FFE7A6" stop-opacity="0.4"/><stop offset="1" stop-color="#FFE7A6" stop-opacity="0"/></radialGradient><clipPath id="prototype-blue-clip"><path d="M62 332L58 292L122 282C200 276 280 264 332 238C362 216 394 200 432 197C472 195 502 205 522 223C562 254 640 272 718 288Q748 294 748 312L746 326Q744 332 732 332L657 332A56 56 0 1 0 551 332L249 332A56 56 0 1 0 143 332Z"/></clipPath><path id="prototype-blue-shell" d="M62 332L58 292L122 282C200 276 280 264 332 238C362 216 394 200 432 197C472 195 502 205 522 223C562 254 640 272 718 288Q748 294 748 312L746 326Q744 332 732 332L657 332A56 56 0 1 0 551 332L249 332A56 56 0 1 0 143 332Z"/><g id="prototype-blue-w"><circle r="50" fill="#131313"/><circle r="45.5" fill="none" stroke="#2E2E2E" stroke-width="3"/><circle r="36" fill="#191B1E"/><path d="M13 -29A32 32 0 0 1 29 -13L21 -9A23 23 0 0 0 9 -21Z" fill="#FF5A00"/><path d="M0 0L0 -31M0 0L29.5 -9.6M0 0L18.2 25.1M0 0L-18.2 25.1M0 0L-29.5 -9.6" stroke="url(#prototype-blue-rim)" stroke-width="8" stroke-linecap="round"/><circle r="35" fill="none" stroke="url(#prototype-blue-rim)" stroke-width="4"/><circle r="10" fill="url(#prototype-blue-rim)"/><circle r="4" fill="#2A2D31"/></g></defs><ellipse cx="400" cy="365" rx="340" ry="17" fill="url(#prototype-blue-shadow)"/><ellipse cx="196" cy="363" rx="50.4" ry="5" fill="#000000" opacity="0.5"/><ellipse cx="604" cy="363" rx="50.4" ry="5" fill="#000000" opacity="0.5"/><path d="M249 332A56 56 0 1 0 143 332Z" fill="#0B0C0D"/><path d="M657 332A56 56 0 1 0 551 332Z" fill="#0B0C0D"/><use href="#prototype-blue-w" transform="translate(196 314) scale(0.96)"/><use href="#prototype-blue-w" transform="translate(604 314) scale(0.96)"/><use href="#prototype-blue-shell" fill="url(#prototype-blue-paint)"/><use href="#prototype-blue-shell" fill="url(#prototype-blue-sheen)"/><path d="M128 282L138 238C220 228 330 212 420 198L430 204C340 226 240 252 150 280Z" fill="url(#prototype-blue-paint)" stroke="#0B0B0B" stroke-opacity="0.5" stroke-width="1.5"/><g clip-path="url(#prototype-blue-clip)"><rect x="0" y="291" width="800" height="9" fill="#FFFFFF"/><rect x="0" y="303" width="800" height="4" fill="#FFFFFF"/><path d="M612 120L654 120L554 380L512 380Z" fill="#FFFFFF"/><path d="M150 302C300 292 520 288 720 302" fill="none" stroke="#FFFFFF" stroke-opacity="0.4" stroke-width="2.5"/></g><path d="M402 210C432 203 470 203 494 215L512 232L420 235Q397 233 402 210Z" fill="url(#prototype-blue-glass)" stroke="#0B0B0B" stroke-opacity="0.6" stroke-width="1.5"/><path d="M452 205L472 207L452 232L436 232Z" fill="#FFFFFF" opacity="0.2"/><path d="M252 290C272 280 300 276 330 278L326 298C300 296 278 300 256 306ZM252 318L550 318L548 332L256 332ZM700 324L748 318L752 330L702 334ZM60 318L142 320L142 332L62 332Z" fill="#16181B"/><path d="M340 246C390 252 440 256 520 258" fill="none" stroke="#0B0B0B" stroke-opacity="0.6" stroke-width="2" stroke-linecap="round"/><path d="M58 296L80 294L80 302L59 305Z" fill="#E5261F" stroke="#0B0B0B" stroke-opacity="0.5"/><path d="M36 230L148 226L150 238L38 242ZM40 218L58 216L62 288L44 290Z" fill="#17191C"/><g><circle cx="462" cy="282" r="23" fill="#FFFFFF" stroke="#0B0B0B" stroke-width="3"/><path d="M455.7 276.3L459.5 272.5L464.5 272.5L468.3 276.3L468.3 279.5L455.7 291.5L468.3 291.5" fill="none" stroke="#0B0B0B" stroke-width="3.3" stroke-linecap="round" stroke-linejoin="round"/></g><path d="M62 332L58 292L122 282C200 276 280 264 332 238C362 216 394 200 432 197C472 195 502 205 522 223C562 254 640 272 718 288Q748 294 748 312L746 326Q744 332 732 332" fill="none" stroke="#FFFFFF" stroke-opacity="0.6" stroke-width="2" stroke-linejoin="round"/><use href="#prototype-blue-shell" fill="none" stroke="#0B0B0B" stroke-opacity="0.6" stroke-width="1.6"/><path d="M698 282L732 290L730 298L696 290Z" fill="#FFF6DA" stroke="#0B0B0B" stroke-opacity="0.6" stroke-width="1.5"/><ellipse cx="736" cy="294" rx="80" ry="32" fill="url(#prototype-blue-glow)"/></svg>
