<svg xmlns="http://www.w3.org/2000/svg" viewBox="0 0 800 450" width="800" height="450"><defs><linearGradient id="supercar-gold-paint" gradientUnits="userSpaceOnUse" x1="0" y1="194" x2="0" y2="330"><stop offset="0" stop-color="#FFEBB0"/><stop offset="0.3" stop-color="#D3A02A"/><stop offset="0.5" stop-color="#D3A02A"/><stop offset="0.6" stop-color="#8A620F"/><stop offset="1" stop-color="#443005"/></linearGradient><linearGradient id="supercar-gold-sheen" gradientUnits="userSpaceOnUse" x1="60" y1="0" x2="760" y2="0"><stop offset="0" stop-color="#FFFFFF" stop-opacity="0"/><stop offset="0.3" stop-color="#FFFFFF" stop-opacity="0.2"/><stop offset="0.5" stop-color="#FFFFFF" stop-opacity="0"/><stop offset="0.8" stop-color="#FFFFFF" stop-opacity="0.1"/><stop offset="1" stop-color="#FFFFFF" stop-opacity="0"/></linearGradient><linearGradient id="supercar-gold-glass" gradientUnits="userSpaceOnUse" x1="0" y1="200" x2="0" y2="270"><stop offset="0" stop-color="#3B4C5D"/><stop offset="1" stop-color="#0A0E12"/></linearGradient><linearGradient id="supercar-gold-rim" gradientUnits="userSpaceOnUse" x1="-36" y1="-36" x2="36" y2="36"><stop offset="0" stop-color="#F6F8FA"/><stop offset="0.5" stop-color="#A9B0B8"/><stop offset="1" stop-color="#5C636B"/></linearGradient><radialGradient id="supercar-gold-shadow" gradientUnits="userSpaceOnUse" cx="400" cy="365" r="340" gradientTransform="translate(400 365) scale(1 0.05) translate(-400 -365)"><stop offset="0" stop-color="#000000" stop-opacity="0.6"/><stop offset="0.7" stop-color="#000000" stop-opacity="0.2"/><stop offset="1" stop-color="#000000" stop-opacity="0"/></radialGradient><radialGradient id="supercar-gold-glow" gradientUnits="userSpaceOnUse" cx="736" cy="292" r="80" gradientTransform="translate(736 292) scale(1 0.4) translate(-736 -292)"><stop offset="0" stop-color="#FFF8DC" stop-opacity="0.9"/><stop offset="0.4" stop-color="#FFE7A6" stop-opacity="0.4"/><stop offset="1" stop-color="#FFE7A6" stop-opacity="0"/></radialGradient><clipPath id="supercar-gold-clip"><path d="M72 328L68 276Q68 256 90 252L178 246C240 240 300 230 346 212C382 198 430 194 470 196C506 198 530 206 556 222L660 268C696 276 722 282 732 292Q738 300 736 310L734 320Q732 328 722 328L648.3 328A61 61 0 1 0 531.7 328L268.3 328A61 61 0 1 0 151.7 328Z"/></clipPath><path id="supercar-gold-shell" d="M72 328L68 276Q68 256 90 252L178 246C240 240 300 230 346 212C382 198 430 194 470 196C506 198 530 206 556 222L660 268C696 276 722 282 732 292Q738 300 736 310L734 320Q732 328 722 328L648.3 328A61 61 0 1 0 531.7 328L268.3 328A61 61 0 1 0 151.7 328Z"/><g id="supercar-gold-w"><circle r="50" fill="#131313"/><circle r="45.5" fill="none" stroke="#2E2E2E" stroke-width="3"/><circle r="36" fill="#191B1E"/><path d="M13 -29A32 32 0 0 1 29 -13L21 -9A23 23 0 0 0 9 -21Z" fill="#FF5A00"/><path d="M0 0L0 -31M0 0L29.5 -9.6M0 0L18.2 25.1M0 0L-18.2 25.1M0 0L-29.5 -9.6" stroke="url(#supercar-gold-rim)" stroke-width="8" stroke-linecap="round"/><circle r="35" fill="none" stroke="url(#supercar-gold-rim)" stroke-width="4"/><circle r="10" fill="url(#supercar-gold-rim)"/><circle r="4" fill="#2A2D31"/></g></defs><ellipse cx="400" cy="365" rx="340" ry="17" fill="url(#supercar-gold-shadow)"/><ellipse cx="210" cy="363" rx="54.6" ry="5" fill="#000000" opacity="0.5"/><ellipse cx="590" cy="363" rx="54.6" ry="5" fill="#000000" opacity="0.5"/><path d="M268.3 328A61 61 0 1 0 151.7 328Z" fill="#0B0C0D"/><path d="M648.3 328A61 61 0 1 0 531.7 328Z" fill="#0B0C0D"/><use href="#supercar-gold-w" transform="translate(210 310) scale(1.04)"/><use href="#supercar-gold-w" transform="translate(590 310) scale(1.04)"/><use href="#supercar-gold-shell" fill="url(#supercar-gold-paint)"/><use href="#supercar-gold-shell" fill="url(#supercar-gold-sheen)"/><path d="M572 240Q584 230 602 234L600 244Q584 248 574 246Z" fill="url(#supercar-gold-paint)" stroke="#0B0B0B" stroke-opacity="0.5" stroke-width="1.5"/><g clip-path="url(#supercar-gold-clip)"><path d="M100 272C230 264 440 262 706 288" fill="none" stroke="#FFFFFF" stroke-opacity="0.4" stroke-width="2.5"/></g><path d="M362 216C394 204 432 200 468 202C500 204 522 212 544 226L592 252L384 250C368 248 356 236 362 216Z" fill="url(#supercar-gold-glass)" stroke="#0B0B0B" stroke-opacity="0.6" stroke-width="1.5"/><path d="M452 204L478 206L436 249L410 249Z" fill="#FFFFFF" opacity="0.2"/><path d="M304 262C334 254 368 252 400 256L394 282C364 281 336 285 307 292ZM272 314L530 314L527 328L275 328ZM692 322L736 316L740 326L694 330ZM78 314L150 316L150 328L80 328Z" fill="#16181B"/><path d="M418 254L410 314M430 268L456 266" fill="none" stroke="#0B0B0B" stroke-opacity="0.6" stroke-width="2" stroke-linecap="round"/><path d="M69 262L96 256L97 266L70 272Z" fill="#E5261F" stroke="#0B0B0B" stroke-opacity="0.5"/><path d="M72 328L68 276Q68 256 90 252L178 246C240 240 300 230 346 212C382 198 430 194 470 196C506 198 530 206 556 222L660 268C696 276 722 282 732 292Q738 300 736 310L734 320Q732 328 722 328" fill="none" stroke="#FFFFFF" stroke-opacity="0.6" stroke-width="2" stroke-linejoin="round"/><use href="#supercar-gold-shell" fill="none" stroke="#0B0B0B" stroke-opacity="0.6" stroke-width="1.6"/><path d="M706 280L733 289L731 297L703 289Z" fill="#FFF6DA" stroke="#0B0B0B" stroke-opacity="0.6" stroke-width="1.5"/><ellipse cx="736" cy="292" rx="80" ry="32" fill="url(#supercar-gold-glow)"/></svg>
